HIERARCHY
ROOT Hips
{
	OFFSET 0.00 0.00 0.00
	CHANNELS 6 Xposition Yposition Zposition Xrotation Yrotation Zrotation
	JOINT LeftUpLeg
	{
		OFFSET 2.94355 0.00000 0.00000
		CHANNELS 3 Xrotation Yrotation Zrotation
		JOINT LeftLeg
		{
			OFFSET 0.00000 -16.73768 0.00000
			CHANNELS 3 Xrotation Yrotation Zrotation
			JOINT LeftFoot
			{
				OFFSET 0.00000 -15.48883 0.00000
				CHANNELS 3 Xrotation Yrotation Zrotation
				JOINT LeftToeBase
				{
					OFFSET 0.00000 -1.60986 6.00809
					CHANNELS 3 Xrotation Yrotation Zrotation
					End Site
					{
						OFFSET 0.00000 0.00000 2.95275
					}
				}
			}
		}
	}
	JOINT RightUpLeg
	{
		OFFSET -2.94355 0.00000 0.00000
		CHANNELS 3 Xrotation Yrotation Zrotation
		JOINT RightLeg
		{
			OFFSET 0.00000 -16.73768 0.00000
			CHANNELS 3 Xrotation Yrotation Zrotation
			JOINT RightFoot
			{
				OFFSET 0.00000 -15.48883 0.00000
				CHANNELS 3 Xrotation Yrotation Zrotation
				JOINT RightToeBase
				{
					OFFSET 0.00000 -1.60986 6.00809
					CHANNELS 3 Xrotation Yrotation Zrotation
					End Site
					{
						OFFSET 0.00000 0.00000 2.95275
					}
				}
			}
		}
	}
	JOINT Spine
	{
		OFFSET 0.00000 0.03937 0.00000
		CHANNELS 3 Xrotation Yrotation Zrotation
		JOINT Spine1
		{
			OFFSET 0.00000 11.10029 0.00000
			CHANNELS 3 Xrotation Yrotation Zrotation
			JOINT Neck
			{
				OFFSET 0.00000 8.89215 0.00000
				CHANNELS 3 Xrotation Yrotation Zrotation
				JOINT Head
				{
					OFFSET 0.00000 5.25932 0.00000
					CHANNELS 3 Xrotation Yrotation Zrotation
					End Site
					{
						OFFSET 0.00000 4.52755 0.00000
					}
				}
			}
			JOINT LeftShoulder
			{
				OFFSET 0.00000 8.89215 0.00000
				CHANNELS 3 Xrotation Yrotation Zrotation
				JOINT LeftArm
				{
					OFFSET 6.13318 -0.00002 0.00000
					CHANNELS 3 Xrotation Yrotation Zrotation
					JOINT LeftForeArm
					{
						OFFSET 10.77766 -0.00004 0.00000
						CHANNELS 3 Xrotation Yrotation Zrotation
						JOINT LeftHand
						{
							OFFSET 9.97045 -0.00004 0.00000
							CHANNELS 3 Xrotation Yrotation Zrotation
							JOINT LeftHandThumb
							{
								OFFSET 0.00000 0.00000 0.00000
								CHANNELS 3 Xrotation Yrotation Zrotation
								End Site
								{
									OFFSET 0.00000 0.00000 3.93700
								}
							}
							JOINT L_Wrist_End
							{
								OFFSET 3.93700 -0.00001 0.00000
								CHANNELS 3 Xrotation Yrotation Zrotation
							}
						}
					}
				}
			}
			JOINT RightShoulder
			{
				OFFSET 0.00000 8.89215 0.00000
				CHANNELS 3 Xrotation Yrotation Zrotation
				JOINT RightArm
				{
					OFFSET -6.13318 -0.00002 0.00000
					CHANNELS 3 Xrotation Yrotation Zrotation
					JOINT RightForeArm
					{
						OFFSET -10.77766 -0.00004 0.00000
						CHANNELS 3 Xrotation Yrotation Zrotation
						JOINT RightHand
						{
							OFFSET -9.97045 -0.00004 0.00000
							CHANNELS 3 Xrotation Yrotation Zrotation
							JOINT RightHandThumb
							{
								OFFSET 0.00000 0.00000 0.00000
								CHANNELS 3 Xrotation Yrotation Zrotation
								End Site
								{
									OFFSET 0.00000 0.00000 3.93700
								}
							}
							JOINT R_Wrist_End
							{
								OFFSET -3.93700 -0.00001 0.00000
								CHANNELS 3 Xrotation Yrotation Zrotation
							}
						}
					}
				}
			}
		}
	}
}
MOTION
Frames: 12
Frame Time: 0.008333
 -75.0352 33.9808 -2.5256 87.5438 82.7145 -79.8398 -3.6322 -0.9072 -0.9908 9.9662 0.0000 0.0000 -7.5523 10.5978 -43.6971 -11.2163 -0.0000 -0.0000 -1.6615 -14.7880 -15.7887 -1.4876 0.0000 -0.0000 -11.0432 11.6139 13.9025 -2.0822 -0.0000 0.0000 -8.1911 1.7773 -10.3511 -1.5281 2.1963 0.7069 16.4839 26.8865 -3.8400 -1.9054 -27.3665 1.5085 -7.6654 0.8978 -9.2262 22.8902 3.0743 -64.5026 -0.0002 -39.5746 -0.0001 -2.0977 17.9210 -6.4252 0.0000 0.0000 0.0000 0.0000 0.0000 0.0000 -1.5092 -10.7983 3.2642 14.1138 8.2701 68.1601 -0.0002 48.0038 0.0001 0.6142 9.9826 -10.5383 0.0000 0.0000 -0.0000 0.0000 0.0000 -0.0000
 -75.0068 33.9704 -2.5735 87.6120 82.6366 -79.9148 -3.8084 -1.1728 -1.0857 10.2763 0.0000 -0.0000 -7.8338 10.8462 -43.6742 -11.2595 0.0000 -0.0000 -1.7136 -14.7888 -15.8748 -1.4759 0.0000 0.0000 -11.1121 11.5991 14.0073 -2.1035 -0.0000 -0.0000 -8.1784 1.8066 -10.3448 -1.5092 2.2320 0.7270 16.4279 26.9373 -3.9087 -1.6493 -27.4493 1.5600 -7.5708 0.8772 -9.2993 23.1124 2.3446 -65.5275 -0.0002 -39.6240 -0.0001 -1.9170 17.8861 -6.2961 0.0000 -0.0000 -0.0000 0.0000 -0.0000 -0.0000 -1.3477 -10.6632 3.4540 14.3656 9.6684 68.7582 -0.0002 48.3184 0.0001 0.6362 10.2635 -10.3753 -0.0000 -0.0000 -0.0000 -0.0000 -0.0000 -0.0000
 -74.9772 33.9615 -2.6260 87.6724 82.5624 -79.9818 -3.9636 -1.4363 -1.1941 10.5508 -0.0000 0.0000 -8.0954 11.1202 -43.6673 -11.1705 0.0000 -0.0000 -1.7657 -14.7758 -15.9699 -1.4469 -0.0000 -0.0000 -11.1969 11.5786 14.1012 -2.0782 -0.0000 -0.0000 -8.1596 1.8366 -10.3352 -1.4769 2.2692 0.7452 16.3616 26.9800 -3.9584 -1.4429 -27.5177 1.5786 -7.4974 0.8560 -9.3865 23.3308 1.6005 -66.4331 -0.0002 -39.7066 -0.0001 -1.5251 17.8015 -5.9884 -0.0000 0.0000 -0.0000 -0.0000 0.0000 -0.0000 -1.2439 -10.5273 3.6222 14.6461 11.0661 69.2489 -0.0002 48.7126 0.0001 1.2368 10.5469 -9.6376 0.0000 0.0000 -0.0000 0.0000 0.0000 -0.0000
 -74.9449 33.9501 -2.6812 87.9169 82.4782 -80.2206 -4.1102 -1.7393 -1.3131 10.7837 0.0000 -0.0000 -8.3686 11.3589 -43.6153 -11.2755 0.0000 -0.0000 -1.8431 -14.7949 -16.0827 -1.3980 0.0000 0.0000 -11.2838 11.5389 14.2073 -2.1101 -0.0000 -0.0000 -8.1516 1.8703 -10.3409 -1.4678 2.3095 0.7615 16.3125 26.9838 -3.9765 -1.1982 -27.5904 1.5955 -7.4418 0.8509 -9.3972 23.5665 0.7712 -67.2941 -0.0002 -39.8134 -0.0001 -1.4620 17.7051 -5.9444 0.0000 -0.0000 0.0000 0.0000 -0.0000 0.0000 -1.0719 -10.4253 3.7804 14.8215 12.4597 69.6839 -0.0002 49.1789 0.0001 1.4005 10.8846 -9.4901 0.0000 -0.0000 -0.0000 0.0000 -0.0000 -0.0000
 -74.9098 33.9399 -2.7411 88.2676 82.3891 -80.5606 -4.2538 -2.0241 -1.4504 10.9991 0.0000 -0.0000 -8.6190 11.6103 -43.5802 -11.2188 -0.0000 0.0000 -1.9183 -14.7914 -16.2087 -1.3385 0.0000 0.0000 -11.3900 11.4840 14.2954 -2.1275 0.0000 -0.0000 -8.1439 1.9001 -10.3452 -1.4530 2.3457 0.7735 16.2317 26.9795 -3.9663 -0.9863 -27.6496 1.5738 -7.4053 0.8326 -9.4376 23.8305 -0.0926 -68.0162 -0.0002 -39.9490 -0.0001 -1.3557 17.6334 -5.7559 0.0000 -0.0000 0.0000 0.0000 -0.0000 0.0000 -0.9556 -10.3371 3.9193 15.0322 13.7897 70.0307 -0.0002 49.7499 0.0001 1.4874 11.2691 -9.2849 0.0000 -0.0000 0.0000 0.0000 -0.0000 0.0000
 -74.8718 33.9295 -2.8037 88.7004 82.2937 -80.9760 -4.3833 -2.3127 -1.5981 11.1795 -0.0000 0.0000 -8.8847 11.8337 -43.5017 -11.3511 -0.0000 0.0000 -2.0097 -14.7986 -16.3455 -1.2569 0.0000 0.0000 -11.4860 11.4108 14.3694 -2.1335 -0.0000 -0.0000 -8.1383 1.9333 -10.3559 -1.4582 2.3856 0.7804 16.1885 26.9409 -3.9319 -0.8218 -27.7037 1.5278 -7.3933 0.8094 -9.4556 24.1328 -1.0099 -68.6462 -0.0002 -40.1133 -0.0001 -1.4634 17.6224 -5.7222 -0.0000 0.0000 0.0000 -0.0000 0.0000 0.0000 -0.8440 -10.2597 4.0431 15.2388 15.0772 70.3140 -0.0003 50.3953 0.0001 1.4335 11.6022 -9.1643 -0.0000 -0.0000 -0.0000 -0.0000 -0.0000 -0.0000
 -74.8313 33.9191 -2.8701 89.3391 82.1955 -81.5899 -4.5123 -2.5742 -1.7564 11.3509 -0.0000 0.0000 -9.1418 12.0222 -43.4272 -11.3469 -0.0000 0.0000 -2.1279 -14.8612 -16.5022 -1.1458 0.0000 0.0000 -11.6027 11.3696 14.4558 -2.1357 -0.0000 -0.0000 -8.1314 1.9560 -10.3711 -1.4779 2.4159 0.7823 16.1914 26.8851 -3.8918 -0.7356 -27.7492 1.4599 -7.4091 0.7759 -9.4597 24.4688 -1.9688 -69.1864 -0.0002 -40.2900 -0.0001 -1.6039 17.6432 -5.7058 -0.0000 0.0000 0.0000 -0.0000 0.0000 0.0000 -0.7499 -10.2027 4.1420 15.4411 16.3072 70.5458 -0.0003 51.1098 0.0001 1.2360 11.8772 -9.1508 -0.0000 -0.0000 -0.0000 -0.0000 -0.0000 -0.0000
 -74.7886 33.9088 -2.9382 90.0644 82.0930 -82.2858 -4.6335 -2.7929 -1.9209 11.5029 0.0000 -0.0000 -9.3928 12.1605 -43.3370 -11.3098 0.0000 0.0000 -2.2292 -14.8598 -16.6608 -1.0236 0.0000 -0.0000 -11.7229 11.2499 14.4992 -2.1489 0.0000 0.0000 -8.1252 1.9765 -10.3924 -1.5082 2.4447 0.7757 16.1802 26.7951 -3.7959 -0.6555 -27.7714 1.3474 -7.4253 0.7383 -9.4574 24.8266 -2.9619 -69.6216 -0.0002 -40.5267 -0.0001 -1.7685 17.6291 -5.7103 -0.0000 0.0000 -0.0000 -0.0000 0.0000 -0.0000 -0.7029 -10.1424 4.1801 15.6030 17.4659 70.8087 -0.0003 51.7867 0.0001 0.9855 12.1169 -9.2208 0.0000 -0.0000 0.0000 0.0000 -0.0000 0.0000
 -74.7431 33.8985 -3.0098 90.8533 81.9898 -83.0436 -4.7340 -3.0224 -2.0955 11.6212 0.0000 0.0000 -9.6556 12.3098 -43.2254 -11.3493 0.0000 -0.0000 -2.3745 -14.9359 -16.8351 -0.8485 -0.0000 0.0000 -11.8626 11.1988 14.5287 -2.1920 0.0000 0.0000 -8.1121 1.9951 -10.4137 -1.5515 2.4727 0.7800 16.2422 26.7383 -3.7895 -0.6267 -27.8396 1.3341 -7.4694 0.6932 -9.4679 25.2266 -3.9894 -69.9435 -0.0002 -40.7942 -0.0001 -1.9377 17.6305 -5.7878 -0.0000 0.0000 -0.0000 -0.0000 0.0000 -0.0000 -0.6381 -10.0947 4.2591 15.8218 18.5514 70.9124 -0.0003 52.6580 0.0001 0.2807 12.3107 -9.2620 0.0000 -0.0000 0.0000 0.0000 -0.0000 0.0000
 -74.6925 33.8890 -3.0841 91.3811 81.9238 -83.5896 -4.7517 -3.1698 -2.2255 11.6873 -0.0000 0.0000 -9.9274 12.4275 -43.0460 -11.4540 0.0000 -0.0000 -2.4002 -14.8177 -16.9511 -0.6899 -0.0000 0.0000 -11.9512 10.9877 14.4492 -2.2339 -0.0000 0.0000 -8.0794 2.0181 -10.3911 -1.5733 2.5017 0.8102 16.2256 26.6480 -3.7208 -0.5210 -27.8880 1.2328 -7.6839 0.6441 -9.5467 25.7912 -4.8057 -70.1996 -0.0002 -41.1742 -0.0001 -1.5294 17.4063 -5.2237 -0.0000 0.0000 0.0000 -0.0000 0.0000 0.0000 -0.9092 -10.0105 4.2949 16.3539 19.4058 70.9729 -0.0003 53.6491 0.0001 -0.2651 12.2631 -9.3108 -0.0000 -0.0000 0.0000 -0.0000 -0.0000 0.0000
 -74.6410 33.8784 -3.1533 92.7330 81.8192 -84.8773 -4.8475 -3.3760 -2.4151 11.7950 -0.0000 0.0000 -10.1920 12.4555 -43.0892 -11.5051 0.0000 -0.0000 -2.6120 -15.0401 -17.1663 -0.4126 -0.0000 -0.0000 -12.1714 11.0046 14.4502 -2.2958 0.0000 0.0000 -8.0676 2.0204 -10.4617 -1.6288 2.5191 0.7890 16.3731 26.5705 -3.7415 -0.5772 -27.9826 1.3520 -7.5574 0.5090 -9.4609 26.0475 -5.9778 -70.3708 -0.0002 -41.5469 -0.0001 -1.1848 16.9609 -4.1591 0.0000 0.0000 -0.0000 0.0000 0.0000 -0.0000 -0.5900 -9.9673 4.3417 16.2926 20.4808 71.0467 -0.0003 54.5207 0.0002 -0.8712 12.5111 -9.7366 -0.0000 -0.0000 0.0000 -0.0000 -0.0000 0.0000
 -74.5894 33.8680 -3.2371 93.8038 81.6999 -85.8620 -4.9258 -3.5814 -2.6602 11.8433 -0.0000 0.0000 -10.4500 12.5417 -42.8206 -11.4941 0.0000 -0.0000 -2.8479 -15.1390 -17.4394 -0.0858 0.0000 0.0000 -12.4154 10.9526 14.4965 -2.3116 -0.0000 -0.0000 -8.0421 2.0238 -10.5111 -1.6968 2.5393 0.7698 16.3505 26.5225 -3.7317 -0.3985 -28.0852 1.4463 -7.5723 0.4858 -9.4922 26.4492 -7.1590 -70.3202 -0.0002 -41.9398 -0.0001 0.4035 16.1863 -2.1992 -0.0000 0.0000 -0.0000 -0.0000 0.0000 -0.0000 -0.5688 -9.9992 4.3718 16.5483 21.4818 70.9466 -0.0003 55.5619 0.0002 -1.2438 12.6070 -9.9525 0.0000 -0.0000 0.0000 0.0000 -0.0000 0.0000
